<svg xmlns="http://www.w3.org/2000/svg" viewBox="0 0 1600 900" width="1600" height="900" role="img" aria-label="Collage elegante di strumenti musicali in oro su pentagramma: chitarra elettrica, tromba, batteria, piano elettrico e microfono">
  <defs>
    <linearGradient id="bg" x1="0" y1="0" x2="0.7" y2="1">
      <stop offset="0" stop-color="#101c13"/>
      <stop offset="0.55" stop-color="#0a120c"/>
      <stop offset="1" stop-color="#060b07"/>
    </linearGradient>
    <radialGradient id="halo" cx="0.6" cy="0.5" r="0.62">
      <stop offset="0" stop-color="#d8b24c" stop-opacity="0.22"/>
      <stop offset="0.6" stop-color="#d8b24c" stop-opacity="0.05"/>
      <stop offset="1" stop-color="#d8b24c" stop-opacity="0"/>
    </radialGradient>
    <linearGradient id="gold" x1="0" y1="0" x2="1" y2="1">
      <stop offset="0"   stop-color="#fdf3cf"/>
      <stop offset="0.28" stop-color="#eccb72"/>
      <stop offset="0.6" stop-color="#c89a36"/>
      <stop offset="1"   stop-color="#876520"/>
    </linearGradient>
    <linearGradient id="goldV" x1="0" y1="0" x2="0" y2="1">
      <stop offset="0" stop-color="#fbeec5"/>
      <stop offset="0.5" stop-color="#d4ab48"/>
      <stop offset="1" stop-color="#8a6a22"/>
    </linearGradient>
    <radialGradient id="brassBell" cx="0.35" cy="0.4" r="0.85">
      <stop offset="0" stop-color="#fcf1ce"/>
      <stop offset="0.5" stop-color="#dcb255"/>
      <stop offset="1" stop-color="#7e5f1d"/>
    </radialGradient>
    <radialGradient id="cymbal" cx="0.5" cy="0.5" r="0.6">
      <stop offset="0" stop-color="#f6e3a0"/>
      <stop offset="0.55" stop-color="#cda043"/>
      <stop offset="1" stop-color="#8a6a22"/>
    </radialGradient>
    <filter id="glowSm" x="-200%" y="-200%" width="500%" height="500%">
      <feGaussianBlur stdDeviation="3.2"/>
    </filter>
    <g id="spark">
      <path d="M0,-26 C3,-7 7,-3 26,0 C7,3 3,7 0,26 C-3,7 -7,3 -26,0 C-7,-3 -3,-7 0,-26 Z" fill="#fff7da" filter="url(#glowSm)"/>
      <path d="M0,-15 C2,-4 4,-2 15,0 C4,2 2,4 0,15 C-2,4 -4,2 -15,0 C-4,-2 -2,-4 0,-15 Z" fill="#ffffff"/>
      <path d="M0,-46 L1.4,-2 L0,46 L-1.4,-2 Z" fill="#fff7da" opacity="0.6" filter="url(#glowSm)"/>
      <path d="M-46,0 L-2,1.4 L46,0 L-2,-1.4 Z" fill="#fff7da" opacity="0.6" filter="url(#glowSm)"/>
    </g>
    <style>
      .det{fill:none;stroke:#2a2009;stroke-opacity:.55;stroke-width:2.4;stroke-linecap:round;stroke-linejoin:round}
      .hl{fill:none;stroke:#fff6d6;stroke-opacity:.55;stroke-width:1.6;stroke-linecap:round}
    </style>
  </defs>

  <rect width="1600" height="900" fill="url(#bg)"/>
  <rect width="1600" height="900" fill="url(#halo)"/>

  <!-- PENTAGRAMMA + CHIAVE + NOTE -->
  <g stroke="#d8b24c" stroke-opacity="0.16" stroke-width="2" fill="none">
    <line x1="0" y1="560" x2="1600" y2="560"/><line x1="0" y1="592" x2="1600" y2="592"/>
    <line x1="0" y1="624" x2="1600" y2="624"/><line x1="0" y1="656" x2="1600" y2="656"/><line x1="0" y1="688" x2="1600" y2="688"/>
  </g>
  <g transform="translate(118,624)" fill="none" stroke="url(#goldV)" stroke-opacity="0.85" stroke-width="9" stroke-linecap="round">
    <path d="M6,84 C6,108 -30,108 -30,82 C-30,60 -2,56 10,74 C24,96 18,40 8,-2
             C-2,-44 2,-92 24,-110 C44,-126 56,-96 50,-70 C44,-44 14,-26 -18,-6
             C-44,10 -52,40 -38,60"/>
  </g>
  <g fill="#d8b24c" fill-opacity="0.5">
    <ellipse cx="470" cy="656" rx="13" ry="10" transform="rotate(-20 470 656)"/><rect x="481" y="572" width="3.5" height="86"/>
    <ellipse cx="690" cy="624" rx="13" ry="10" transform="rotate(-20 690 624)"/><rect x="701" y="540" width="3.5" height="86"/>
  </g>

  <!-- TROMBA -->
  <g transform="translate(1180,178) rotate(6) scale(0.92)">
    <path d="M150,6 C150,-46 210,-46 230,-30 C262,-4 262,16 230,42 C210,58 150,58 150,6 Z" fill="url(#brassBell)" stroke="#7c5f1f" stroke-width="1.6"/>
    <ellipse cx="150" cy="6" rx="16" ry="50" fill="#8a6a22"/>
    <path d="M-150,8 L150,8" fill="none" stroke="url(#gold)" stroke-width="22" stroke-linecap="round"/>
    <path d="M-150,8 C-196,8 -196,-44 -150,-44 L120,-44" fill="none" stroke="url(#gold)" stroke-width="16" stroke-linecap="round"/>
    <path d="M120,-44 C150,-44 150,-12 132,4" fill="none" stroke="url(#gold)" stroke-width="16" stroke-linecap="round"/>
    <path d="M-150,0 l-26,-6 0,20 26,-6 z" fill="url(#gold)" stroke="#7c5f1f" stroke-width="1.4"/>
    <g>
      <rect x="-46" y="-82" width="22" height="58" rx="8" fill="url(#goldV)" stroke="#7c5f1f" stroke-width="1.4"/>
      <rect x="-12" y="-82" width="22" height="58" rx="8" fill="url(#goldV)" stroke="#7c5f1f" stroke-width="1.4"/>
      <rect x="22"  y="-82" width="22" height="58" rx="8" fill="url(#goldV)" stroke="#7c5f1f" stroke-width="1.4"/>
    </g>
    <g fill="#f6e3a0"><circle cx="-35" cy="-88" r="8"/><circle cx="-1" cy="-88" r="8"/><circle cx="33" cy="-88" r="8"/></g>
    <line class="hl" x1="-150" y1="2" x2="120" y2="2"/>
  </g>

  <!-- BATTERIA -->
  <g transform="translate(430,560)">
    <line x1="-150" y1="20" x2="-150" y2="300" stroke="#9c7a2b" stroke-width="5"/>
    <line x1="150" y1="60" x2="150" y2="300" stroke="#9c7a2b" stroke-width="5"/>
    <g transform="translate(-150,8) rotate(-10)">
      <ellipse cx="0" cy="0" rx="98" ry="26" fill="url(#cymbal)" stroke="#7c5f1f" stroke-width="1.4"/>
      <ellipse cx="0" cy="-1" rx="70" ry="18" fill="none" stroke="#8a6a22" stroke-opacity=".5" stroke-width="1.5"/>
      <ellipse cx="0" cy="-2" rx="44" ry="11" fill="none" stroke="#8a6a22" stroke-opacity=".5" stroke-width="1.5"/>
      <ellipse cx="0" cy="-2" rx="12" ry="4" fill="#f6e3a0"/>
    </g>
    <g transform="translate(150,46)">
      <ellipse cx="0" cy="0" rx="62" ry="15" fill="url(#cymbal)" stroke="#7c5f1f" stroke-width="1.2"/>
      <ellipse cx="0" cy="-12" rx="62" ry="15" fill="url(#cymbal)" stroke="#7c5f1f" stroke-width="1.2"/>
    </g>
    <circle cx="0" cy="150" r="120" fill="url(#goldV)" stroke="#7c5f1f" stroke-width="2"/>
    <circle cx="0" cy="150" r="92" fill="none" stroke="#8a6a22" stroke-opacity=".6" stroke-width="3"/>
    <g fill="#f1dd92"><circle cx="0" cy="36" r="5.5"/><circle cx="84" cy="66" r="5.5"/><circle cx="84" cy="234" r="5.5"/><circle cx="-84" cy="66" r="5.5"/><circle cx="-84" cy="234" r="5.5"/><circle cx="0" cy="264" r="5.5"/></g>
    <line x1="-86" y1="232" x2="-150" y2="296" stroke="#9c7a2b" stroke-width="6" stroke-linecap="round"/>
    <line x1="86" y1="232" x2="150" y2="296" stroke="#9c7a2b" stroke-width="6" stroke-linecap="round"/>
    <ellipse cx="-46" cy="22" rx="58" ry="40" fill="url(#goldV)" stroke="#7c5f1f" stroke-width="1.6"/>
    <ellipse cx="-46" cy="18" rx="46" ry="30" fill="none" stroke="#8a6a22" stroke-opacity=".5" stroke-width="2"/>
    <ellipse cx="66" cy="16" rx="62" ry="42" fill="url(#goldV)" stroke="#7c5f1f" stroke-width="1.6"/>
    <ellipse cx="66" cy="12" rx="50" ry="32" fill="none" stroke="#8a6a22" stroke-opacity=".5" stroke-width="2"/>
  </g>

  <!-- PIANO ELETTRICO -->
  <g transform="translate(840,690) scale(1.04)">
    <g stroke="#9c7a2b" stroke-width="6" stroke-linecap="round">
      <line x1="-150" y1="118" x2="-72" y2="42"/><line x1="-72" y1="118" x2="-150" y2="42"/>
      <line x1="150" y1="118" x2="72" y2="42"/><line x1="72" y1="118" x2="150" y2="42"/>
    </g>
    <rect x="-272" y="-20" width="544" height="60" rx="10" fill="url(#gold)" stroke="#7c5f1f" stroke-width="1.6"/>
    <rect x="-258" y="-12" width="60" height="44" rx="6" fill="#9c7a2b" stroke="#7c5f1f" stroke-width="1.2"/>
    <g fill="#f6e3a0"><circle cx="-243" cy="2" r="5"/><circle cx="-225" cy="2" r="5"/><circle cx="-207" cy="2" r="5"/></g>
    <g fill="#f7eecf" stroke="#8a6a22" stroke-width="1">
      <rect x="-188" y="-12" width="20.4" height="50" rx="2"/><rect x="-167" y="-12" width="20.4" height="50" rx="2"/>
      <rect x="-146" y="-12" width="20.4" height="50" rx="2"/><rect x="-125" y="-12" width="20.4" height="50" rx="2"/>
      <rect x="-104" y="-12" width="20.4" height="50" rx="2"/><rect x="-83" y="-12" width="20.4" height="50" rx="2"/>
      <rect x="-62" y="-12" width="20.4" height="50" rx="2"/><rect x="-41" y="-12" width="20.4" height="50" rx="2"/>
      <rect x="-20" y="-12" width="20.4" height="50" rx="2"/><rect x="1" y="-12" width="20.4" height="50" rx="2"/>
      <rect x="22" y="-12" width="20.4" height="50" rx="2"/><rect x="43" y="-12" width="20.4" height="50" rx="2"/>
      <rect x="64" y="-12" width="20.4" height="50" rx="2"/><rect x="85" y="-12" width="20.4" height="50" rx="2"/>
      <rect x="106" y="-12" width="20.4" height="50" rx="2"/><rect x="127" y="-12" width="20.4" height="50" rx="2"/>
      <rect x="148" y="-12" width="20.4" height="50" rx="2"/><rect x="169" y="-12" width="20.4" height="50" rx="2"/>
      <rect x="190" y="-12" width="20.4" height="50" rx="2"/><rect x="211" y="-12" width="20.4" height="50" rx="2"/>
      <rect x="232" y="-12" width="20.4" height="50" rx="2"/>
    </g>
    <g fill="#15140c">
      <rect x="-176" y="-12" width="12" height="32" rx="1.5"/><rect x="-155" y="-12" width="12" height="32" rx="1.5"/>
      <rect x="-113" y="-12" width="12" height="32" rx="1.5"/><rect x="-92" y="-12" width="12" height="32" rx="1.5"/><rect x="-71" y="-12" width="12" height="32" rx="1.5"/>
      <rect x="-29" y="-12" width="12" height="32" rx="1.5"/><rect x="-8" y="-12" width="12" height="32" rx="1.5"/>
      <rect x="34" y="-12" width="12" height="32" rx="1.5"/><rect x="55" y="-12" width="12" height="32" rx="1.5"/><rect x="76" y="-12" width="12" height="32" rx="1.5"/>
      <rect x="118" y="-12" width="12" height="32" rx="1.5"/><rect x="139" y="-12" width="12" height="32" rx="1.5"/>
      <rect x="181" y="-12" width="12" height="32" rx="1.5"/><rect x="202" y="-12" width="12" height="32" rx="1.5"/><rect x="223" y="-12" width="12" height="32" rx="1.5"/>
    </g>
    <line class="hl" x1="-264" y1="-14" x2="264" y2="-14"/>
  </g>

  <!-- MICROFONO su asta dritta -->
  <g transform="translate(1495,440)">
    <line x1="0" y1="74" x2="0" y2="392" stroke="#cda043" stroke-width="7"/>
    <g stroke="#cda043" stroke-width="7" stroke-linecap="round"><line x1="0" y1="392" x2="-64" y2="446"/><line x1="0" y1="392" x2="64" y2="446"/><line x1="0" y1="392" x2="0" y2="452"/></g>
    <line class="hl" x1="-2" y1="80" x2="-2" y2="388"/>
    <circle cx="0" cy="74" r="6" fill="#9c7a2b"/>
    <rect x="-25" y="-50" width="50" height="128" rx="25" fill="url(#gold)" stroke="#7c5f1f" stroke-width="1.6"/>
    <rect x="-18" y="-43" width="36" height="54" rx="18" fill="#3a2e10" fill-opacity=".5"/>
    <g stroke="#d4ab48" stroke-width="2"><line x1="-15" y1="-34" x2="15" y2="-34"/><line x1="-15" y1="-22" x2="15" y2="-22"/><line x1="-15" y1="-10" x2="15" y2="-10"/><line x1="-15" y1="2" x2="15" y2="2"/></g>
    <line class="hl" x1="-14" y1="-43" x2="-14" y2="70"/>
  </g>

  <!-- CHITARRA ELETTRICA -->
  <g transform="translate(1015,470) rotate(-27) scale(1.18)">
    <g stroke="#fbeec5" stroke-opacity="0.85" stroke-width="1.4">
      <line x1="-15" y1="54" x2="-13" y2="-486"/><line x1="-9" y1="54" x2="-8" y2="-486"/><line x1="-3" y1="54" x2="-3" y2="-486"/>
      <line x1="3" y1="54" x2="3" y2="-486"/><line x1="9" y1="54" x2="8" y2="-486"/><line x1="15" y1="54" x2="13" y2="-486"/>
    </g>
    <rect x="-19" y="-420" width="38" height="330" rx="8" fill="url(#gold)"/>
    <g class="det"><line x1="-19" y1="-150" x2="19" y2="-150"/><line x1="-19" y1="-190" x2="19" y2="-190"/><line x1="-19" y1="-230" x2="19" y2="-230"/><line x1="-19" y1="-270" x2="19" y2="-270"/><line x1="-19" y1="-310" x2="19" y2="-310"/><line x1="-19" y1="-350" x2="19" y2="-350"/><line x1="-19" y1="-390" x2="19" y2="-390"/></g>
    <g fill="#2a2009" fill-opacity=".5"><circle cx="0" cy="-210" r="3.5"/><circle cx="0" cy="-290" r="3.5"/><circle cx="0" cy="-370" r="3.5"/></g>
    <path d="M-24,-420 L24,-420 L31,-478 L37,-532 L8,-548 L-8,-532 Z" fill="url(#gold)" stroke="#7c5f1f" stroke-width="1.4"/>
    <g fill="#f6e3a0" stroke="#7c5f1f" stroke-width="1.2"><circle cx="-31" cy="-442" r="6.5"/><circle cx="-33" cy="-472" r="6.5"/><circle cx="-35" cy="-502" r="6.5"/><circle cx="33" cy="-442" r="6.5"/><circle cx="33" cy="-474" r="6.5"/><circle cx="31" cy="-506" r="6.5"/></g>
    <path d="M-100,-72 C-124,-112 -70,-136 -28,-114 C-10,-100 12,-100 30,-116
             C72,-138 124,-110 102,-66 C136,-24 132,72 96,116 C58,156 -60,156 -98,112
             C-134,66 -130,-32 -100,-72 Z" fill="url(#gold)" stroke="#7c5f1f" stroke-width="1.6"/>
    <path d="M-6,-100 C-54,-82 -82,-30 -72,34 C-66,76 -28,100 12,94 L36,40 L20,-58 Z" fill="#2a2009" fill-opacity=".22"/>
    <g fill="#9c7a2b" stroke="#7c5f1f" stroke-width="1.2"><rect x="-30" y="-60" width="60" height="16" rx="3"/><rect x="-30" y="-18" width="60" height="16" rx="3"/><rect x="-34" y="26" width="68" height="18" rx="3"/></g>
    <rect x="-30" y="56" width="60" height="14" rx="3" fill="#9c7a2b" stroke="#7c5f1f" stroke-width="1.2"/>
    <g fill="#f6e3a0" stroke="#7c5f1f" stroke-width="1.2"><circle cx="46" cy="42" r="9"/><circle cx="52" cy="68" r="9"/><circle cx="38" cy="88" r="9"/></g>
    <path d="M-70,-70 C-92,-30 -90,40 -64,96" class="hl"/>
  </g>

  <!-- SCINTILLII -->
  <use href="#spark" transform="translate(1402,150) scale(0.85)"/>
  <use href="#spark" transform="translate(298,556) scale(0.72)"/>
  <use href="#spark" transform="translate(1480,402) scale(0.5)"/>
  <use href="#spark" transform="translate(1112,452) scale(0.6)"/>
  <use href="#spark" transform="translate(150,512) scale(0.5)"/>
  <use href="#spark" transform="translate(905,604) scale(0.42)"/>
</svg>
